# xmcd
#
# Track frame offsets: 
#        150
#        31233
#        50336
#        78323
#        93108
#        141773
#        168213
#
# Disc length: 2574 seconds
#
# Revision: 1
# Processed by: cddbd v1.5.2PL0 Copyright (c) Steve Scherf et al.
# Submitted via: ExactAudioCopy v1.3
#
DISCID=480a0c07
DTITLE=Led Zeppelin - In Through The Out Door (Disc.2)
DYEAR=1979
DGENRE=Hard Rock
TTITLE0=In The Evening (rough mix)
TTITLE1=Southbound Piano (South Bound Saurez) (rough mix)
TTITLE2=Fool In The Rain (rough mix)
TTITLE3=Hot Dog (rough mix)
TTITLE4=The Epic (Carouselambra) (rough mix)
TTITLE5=The Hook (All My Love) (rough mix)
TTITLE6=Blot (I'm Gonna Crawl) (rough mix)
EXTD=
EXTT0=
EXTT1=
EXTT2=
EXTT3=
EXTT4=
EXTT5=
EXTT6=
PLAYORDER=
